<svg xmlns="http://www.w3.org/2000/svg" viewBox="0 0 512 512" width="512" height="512">
	<style>
		tspan { white-space:pre }
		.shp0 { fill: #e64c3c } 
		.shp1 { fill: #f0c419 } 
		.shp2 { fill: #f3d55b } 
		.shp3 { fill: #ffffff } 
		.shp4 { fill: #f9eab0 } 
		.shp5 { fill: #c03a2b } 
		.shp6 { fill: #ecf0f1 } 
		.shp7 { fill: #fb7b76 } 
		.shp8 { fill: #393f4a } 
	</style>
	<g id="Page-1">
		<g id="025---Dragon">
			<path id="Shape" class="shp0" d="M496.93 382.17L486.34 392.77C484.05 388.95 481.12 385.57 477.66 382.77C477.96 382.36 478.22 381.91 478.44 381.45L484.89 365.21C486.69 360.67 484.47 355.54 479.94 353.74C475.4 351.94 470.27 354.16 468.47 358.69L462.03 374.93C461.95 375.25 461.89 375.58 461.85 375.91C457.98 375.37 454.05 375.45 450.21 376.14L450.21 361.93C450.21 357.06 446.25 353.1 441.38 353.1C436.5 353.1 432.55 357.06 432.55 361.93L432.55 378.53C432.57 379.87 432.9 381.19 433.52 382.38C422.5 389.07 413.19 398.24 406.33 409.16C405.69 392.19 402.32 375.44 396.36 359.55L396.36 359.46C401.3 307.38 459.03 326.62 459.03 326.62C467.86 291.31 512 282.48 512 282.48C499.82 258.17 477.69 240.33 451.35 233.58C446.79 232.23 441.87 232.8 437.73 235.15C433.59 237.49 430.57 241.42 429.37 246.02C423.55 268.36 408.1 305.88 368.73 309.23C361.75 299.66 353.82 290.82 345.07 282.84C360.22 272.94 369.76 256.42 370.76 238.34C370.61 228.01 367.18 218 360.96 209.74C356.97 204.59 356.22 197.62 359.02 191.74C360.08 189.62 361.05 187.5 361.93 185.38C450.21 167.72 441.38 105.93 441.38 105.93C417.62 92.22 388.8 90.42 363.52 101.08C360.84 93.84 357.43 86.89 353.37 80.33C369.16 59.85 378.31 35.02 379.59 9.18C379.69 6.43 378.5 3.78 376.37 2.03C374.24 0.28 371.41 -0.37 368.73 0.26C343.94 5.76 321.35 18.51 303.85 36.9C293.54 32.18 282.59 29.03 271.36 27.54L264.39 6C263.2 2.38 259.81 -0.07 256 -0.07C252.19 -0.07 248.8 2.38 247.61 6L240.64 27.45C229.41 28.94 218.49 32.16 208.24 36.99L208.15 36.9C190.65 18.51 168.06 5.76 143.27 0.26C140.59 -0.37 137.76 0.28 135.63 2.03C133.5 3.78 132.31 6.43 132.41 9.18C133.68 35.06 142.86 59.93 158.72 80.42C154.57 86.92 151.14 93.84 148.48 101.08C123.2 90.42 94.38 92.22 70.62 105.93C70.62 105.93 61.79 167.72 150.07 185.38C150.93 187.55 151.91 189.67 152.98 191.74C155.78 197.62 155.03 204.59 151.04 209.74C144.82 218 141.39 228.01 141.24 238.34C142.27 256.5 151.87 273.09 167.11 283.01C158.51 291.06 150.65 299.87 143.62 309.32C103.99 306.14 88.45 268.45 82.63 246.02C81.43 241.42 78.41 237.49 74.27 235.15C70.13 232.8 65.21 232.23 60.65 233.58C34.31 240.33 12.18 258.17 0 282.48C0 282.48 44.14 291.31 52.97 326.62C52.97 326.62 111.4 307.11 115.73 360.34L115.73 360.43C109.86 376.34 106.59 393.09 106.02 410.04C99.23 398.72 89.77 389.22 78.48 382.38C79.09 381.18 79.42 379.87 79.45 378.53L79.45 361.93C79.45 357.06 75.5 353.1 70.62 353.1C65.75 353.1 61.79 357.06 61.79 361.93L61.79 376.14C57.95 375.45 54.01 375.36 50.14 375.89C50.1 375.56 50.04 375.24 49.96 374.92L43.52 358.67C41.72 354.14 36.59 351.92 32.05 353.72C27.52 355.52 25.3 360.65 27.1 365.19L33.54 381.42C33.76 381.89 34.03 382.34 34.33 382.76C30.87 385.55 27.93 388.93 25.64 392.75L15.05 382.16C11.59 378.81 6.08 378.86 2.68 382.26C-0.73 385.67 -0.78 391.17 2.57 394.64L15.28 407.35C16.38 408.4 17.74 409.14 19.23 409.49C16.02 427.33 18.24 445.73 25.6 462.3C40.87 498.58 73 519.68 97.46 509.44C108.39 504.3 116.39 494.45 119.17 482.69C131 505.47 148.22 512 158.9 512C175.52 512.51 191.61 506.09 203.3 494.26C220.17 500.44 238.03 503.46 256 503.17C274.1 503.46 292.09 500.38 309.05 494.08C320.69 506.06 336.85 512.57 353.54 512C364.14 512 381.18 505.64 393 483.22C395.88 494.75 403.79 504.38 414.54 509.44C439 519.68 471.13 498.58 486.4 462.3C493.75 445.73 495.97 427.34 492.76 409.5C494.24 409.16 495.6 408.42 496.7 407.37L509.41 394.65C512.76 391.19 512.71 385.69 509.31 382.28C505.9 378.88 500.4 378.83 496.93 382.17L496.93 382.17Z" />
			<g id="Layer">
				<path id="Shape" class="shp1" d="M21.54 409.95C19.2 409.95 16.95 409.02 15.3 407.37L2.59 394.65C-0.76 391.19 -0.71 385.69 2.69 382.28C6.1 378.88 11.6 378.83 15.07 382.17L27.78 394.88C30.3 397.41 31.06 401.21 29.69 404.5C28.33 407.8 25.11 409.95 21.54 409.95L21.54 409.95Z" />
				<path id="Shape" class="shp1" d="M41.75 387C38.13 387 34.88 384.79 33.54 381.42L27.1 365.19C25.3 360.65 27.52 355.52 32.05 353.72C36.59 351.92 41.72 354.14 43.52 358.67L49.96 374.92C50.83 377.09 50.8 379.53 49.87 381.68C48.94 383.83 47.19 385.53 45.01 386.39C43.97 386.8 42.87 387 41.75 387L41.75 387Z" />
				<path id="Shape" class="shp1" d="M70.62 387.35C65.75 387.35 61.79 383.4 61.79 378.53L61.79 361.93C61.79 357.06 65.75 353.1 70.62 353.1C75.5 353.1 79.45 357.06 79.45 361.93L79.45 378.53C79.45 383.4 75.5 387.35 70.62 387.35Z" />
				<path id="Shape" class="shp1" d="M490.46 409.95C486.89 409.95 483.67 407.8 482.31 404.5C480.94 401.21 481.7 397.41 484.22 394.88L496.93 382.17C500.4 378.83 505.9 378.88 509.31 382.28C512.71 385.69 512.76 391.19 509.41 394.65L496.7 407.37C495.05 409.02 492.8 409.95 490.46 409.95Z" />
				<path id="Shape" class="shp1" d="M470.25 387C467.32 387 464.58 385.55 462.94 383.13C461.29 380.71 460.96 377.64 462.04 374.92L468.48 358.67C469.64 355.74 472.28 353.65 475.41 353.19C478.53 352.73 481.66 353.98 483.62 356.45C485.57 358.92 486.06 362.26 484.9 365.19L478.45 381.43C477.11 384.79 473.86 387 470.25 387L470.25 387Z" />
				<path id="Shape" class="shp1" d="M441.38 387.35C436.5 387.35 432.55 383.4 432.55 378.53L432.55 361.93C432.55 357.06 436.5 353.1 441.38 353.1C446.25 353.1 450.21 357.06 450.21 361.93L450.21 378.53C450.21 383.4 446.25 387.35 441.38 387.35Z" />
			</g>
			<path id="Shape" class="shp2" d="M208.24 36.99C187.88 46.36 170.67 61.45 158.72 80.42C142.86 59.93 133.68 35.06 132.41 9.18C132.31 6.43 133.5 3.78 135.63 2.03C137.76 0.28 140.59 -0.37 143.27 0.26C168.06 5.76 190.65 18.51 208.15 36.9L208.24 36.99Z" />
			<path id="Shape" class="shp2" d="M379.59 9.18C378.31 35.02 369.16 59.85 353.37 80.33C341.41 61.36 324.21 46.28 303.85 36.9C321.35 18.51 343.94 5.76 368.73 0.26C371.41 -0.37 374.24 0.28 376.37 2.03C378.5 3.78 379.69 6.43 379.59 9.18L379.59 9.18Z" />
			<path id="Shape" class="shp0" d="M353.37 80.33C353.32 80.33 353.28 80.37 353.28 80.42" />
			<path id="Oval" class="shp3" d="M203.03 185.38C188.39 185.38 176.55 173.54 176.55 158.9C176.55 144.25 188.39 132.41 203.03 132.41C217.68 132.41 229.52 144.25 229.52 158.9C229.52 173.54 217.68 185.38 203.03 185.38Z" />
			<path id="Oval" class="shp3" d="M308.97 185.38C294.32 185.38 282.48 173.54 282.48 158.9C282.48 144.25 294.32 132.41 308.97 132.41C323.61 132.41 335.45 144.25 335.45 158.9C335.45 173.54 323.61 185.38 308.97 185.38Z" />
			<path id="Shape" class="shp4" d="M150.07 185.38C61.79 167.72 70.62 105.93 70.62 105.93C96.97 115.24 121.11 129.91 141.51 149.01C142.38 161.52 145.27 173.8 150.07 185.38Z" />
			<path id="Shape" class="shp5" d="M142.12 126.59C141.17 134.02 140.97 141.53 141.51 149.01C121.11 129.91 96.97 115.24 70.62 105.93C94.38 92.22 123.2 90.42 148.48 101.08C145.33 109.29 143.2 117.86 142.12 126.59Z" />
			<path id="Shape" class="shp5" d="M370.49 149.01C370.67 146.45 370.76 143.89 370.76 141.24C370.78 127.53 368.33 113.92 363.52 101.08C388.8 90.42 417.62 92.22 441.38 105.93C415.03 115.24 390.89 129.91 370.49 149.01Z" />
			<path id="Shape" class="shp4" d="M361.93 185.38C366.77 173.81 369.67 161.52 370.49 149.01C390.89 129.91 415.03 115.24 441.38 105.93C441.38 105.93 450.21 167.72 361.93 185.38Z" />
			<path id="Shape" class="shp6" d="M270.3 61.79L241.7 61.79C238.87 61.79 236.22 60.44 234.56 58.15C232.9 55.86 232.44 52.92 233.31 50.23L240.64 27.45L247.61 6C248.8 2.38 252.19 -0.07 256 -0.07C259.81 -0.07 263.2 2.38 264.39 6L271.36 27.54L278.69 50.23C279.56 52.92 279.1 55.86 277.44 58.15C275.78 60.44 273.13 61.79 270.3 61.79L270.3 61.79Z" />
			<path id="Shape" class="shp0" d="M176.55 370.76C177.49 382.88 180.47 394.76 185.38 405.89" />
			<path id="Shape" class="shp7" d="M326.62 273.66L326.62 293.96C304.48 304.13 280.36 309.25 256 308.97C231.64 309.25 207.52 304.13 185.38 293.96L185.38 273.66C185.38 244.4 209.09 220.69 238.34 220.69L273.66 220.69C302.91 220.69 326.62 244.4 326.62 273.66L326.62 273.66Z" />
			<path id="Shape" class="shp0" d="M335.89 370.76C334.94 383.01 331.93 395 326.97 406.25" />
			<path id="Shape" class="shp7" d="M309.41 441.38C295.81 463.98 298.46 481.9 309.05 494.08C292.09 500.38 274.1 503.46 256 503.17C238.03 503.46 220.17 500.44 203.3 494.26C213.89 482.07 216.63 464.07 203.03 441.38C196.17 430.06 190.27 418.19 185.38 405.89C186 402.18 196.15 344.28 256 344.28C317.79 344.28 326.62 406.07 326.62 406.07L326.97 406.25C322.09 418.42 316.21 430.17 309.41 441.38Z" />
			<path id="Shape" class="shp5" d="M143.62 309.32C131.88 324.87 122.48 342.06 115.73 360.34C111.4 307.11 52.97 326.62 52.97 326.62C44.14 291.31 0 282.48 0 282.48C12.18 258.17 34.31 240.33 60.65 233.58C65.21 232.23 70.13 232.8 74.27 235.15C78.41 237.49 81.43 241.42 82.63 246.02C88.45 268.45 103.99 306.14 143.62 309.32Z" />
			<path id="Shape" class="shp5" d="M119.17 482.69C116.39 494.45 108.39 504.3 97.46 509.44C73 519.68 40.87 498.58 25.6 462.3C16.78 443.1 15.33 421.32 21.54 401.13C24.8 391 32.12 382.69 41.75 378.17C41.84 378.09 42.02 378.09 42.11 378C51.31 374.42 61.55 374.61 70.62 378.53C85.48 384.99 97.88 396.03 106.02 410.04C105.93 411.63 105.93 413.31 105.93 414.9C104.86 438.23 109.4 461.48 119.17 482.69L119.17 482.69Z" />
			<path id="Shape" class="shp5" d="M512 282.48C512 282.48 467.86 291.31 459.03 326.62C459.03 326.62 401.3 307.38 396.36 359.46C389.63 341.47 380.32 324.55 368.73 309.23C408.1 305.88 423.55 268.36 429.37 246.02C430.57 241.42 433.59 237.49 437.73 235.15C441.87 232.8 446.79 232.23 451.35 233.58C477.69 240.33 499.82 258.17 512 282.48L512 282.48Z" />
			<path id="Shape" class="shp0" d="M368.73 309.23C368.62 309.3 368.5 309.33 368.38 309.32" />
			<path id="Shape" class="shp0" d="M396.27 360.43L396.27 360.34C396.27 360.08 396.36 359.81 396.36 359.55" />
			<path id="Shape" class="shp5" d="M486.4 462.3C471.13 498.58 439 519.68 414.54 509.44C403.79 504.38 395.88 494.75 393 483.22C402.97 461.87 407.6 438.43 406.51 414.9C406.51 413.04 406.51 411.19 406.33 409.34L406.33 409.16C414.58 395.58 426.82 384.88 441.38 378.53C450.45 374.61 460.69 374.42 469.89 378C469.98 378.09 470.16 378.09 470.25 378.17C479.88 382.69 487.2 391 490.46 401.13C496.67 421.32 495.22 443.1 486.4 462.3L486.4 462.3Z" />
			<path id="Oval" class="shp7" d="M61.79 450.21C52.03 450.21 44.14 442.32 44.14 432.55C44.14 422.79 52.03 414.9 61.79 414.9C71.56 414.9 79.45 422.79 79.45 432.55C79.45 442.32 71.56 450.21 61.79 450.21Z" />
			<path id="Oval" class="shp7" d="M88.28 485.52C83.39 485.52 79.45 481.57 79.45 476.69C79.45 471.81 83.39 467.86 88.28 467.86C93.16 467.86 97.1 471.81 97.1 476.69C97.1 481.57 93.16 485.52 88.28 485.52Z" />
			<path id="Oval" class="shp7" d="M450.21 450.21C440.44 450.21 432.55 442.32 432.55 432.55C432.55 422.79 440.44 414.9 450.21 414.9C459.97 414.9 467.86 422.79 467.86 432.55C467.86 442.32 459.97 450.21 450.21 450.21Z" />
			<path id="Oval" class="shp7" d="M423.72 485.52C418.84 485.52 414.9 481.57 414.9 476.69C414.9 471.81 418.84 467.86 423.72 467.86C428.61 467.86 432.55 471.81 432.55 476.69C432.55 481.57 428.61 485.52 423.72 485.52Z" />
			<path id="Shape" class="shp3" d="M273.66 397.24L238.34 397.24C233.47 397.24 229.52 393.29 229.52 388.41C229.52 383.54 233.47 379.59 238.34 379.59L273.66 379.59C278.53 379.59 282.48 383.54 282.48 388.41C282.48 393.29 278.53 397.24 273.66 397.24Z" />
			<path id="Shape" class="shp3" d="M264.83 467.86L247.17 467.86C242.3 467.86 238.34 463.91 238.34 459.03C238.34 454.16 242.3 450.21 247.17 450.21L264.83 450.21C269.7 450.21 273.66 454.16 273.66 459.03C273.66 463.91 269.7 467.86 264.83 467.86Z" />
			<path id="Shape" class="shp3" d="M282.48 432.55L229.52 432.55C224.64 432.55 220.69 428.6 220.69 423.72C220.69 418.85 224.64 414.9 229.52 414.9L282.48 414.9C287.36 414.9 291.31 418.85 291.31 423.72C291.31 428.6 287.36 432.55 282.48 432.55Z" />
			<path id="Oval" class="shp8" d="M195.45 162.55C188.13 162.55 182.21 156.63 182.21 149.31C182.21 141.99 188.13 136.07 195.45 136.07C202.77 136.07 208.69 141.99 208.69 149.31C208.69 156.63 202.77 162.55 195.45 162.55Z" />
			<path id="Oval" class="shp8" d="M316.55 181.55C309.23 181.55 303.31 175.63 303.31 168.31C303.31 160.99 309.23 155.07 316.55 155.07C323.87 155.07 329.79 160.99 329.79 168.31C329.79 175.63 323.87 181.55 316.55 181.55Z" />
			<path id="Shape" class="shp8" d="M229.52 273.66L220.69 273.66C215.81 273.66 211.86 269.7 211.86 264.83C211.86 259.95 215.81 256 220.69 256L229.52 256C234.39 256 238.34 259.95 238.34 264.83C238.34 269.7 234.39 273.66 229.52 273.66Z" />
			<path id="Shape" class="shp8" d="M291.31 273.66L282.48 273.66C277.61 273.66 273.66 269.7 273.66 264.83C273.66 259.95 277.61 256 282.48 256L291.31 256C296.19 256 300.14 259.95 300.14 264.83C300.14 269.7 296.19 273.66 291.31 273.66Z" />
		</g>
	</g>
</svg>