<?xml version="1.0" encoding="iso-8859-1"?>
<!-- Uploaded to: SVG Repo, www.svgrepo.com, Generator: SVG Repo Mixer Tools -->
<!DOCTYPE svg PUBLIC "-//W3C//DTD SVG 1.1//EN" "http://www.w3.org/Graphics/SVG/1.1/DTD/svg11.dtd">
<svg fill="#000000" version="1.1" id="Capa_1" xmlns="http://www.w3.org/2000/svg" xmlns:xlink="http://www.w3.org/1999/xlink" 
	 width="800px" height="800px" viewBox="0 0 34.467 34.467"
	 xml:space="preserve">
<g>
	<path d="M30.209,21.296v1.5c0,0.275-0.225,0.5-0.5,0.5s-0.5-0.225-0.5-0.5v-1.5c0-0.275,0.225-0.5,0.5-0.5
		S30.209,21.021,30.209,21.296z M3.543,16.354c0.276,0,0.5-0.224,0.5-0.5v-2.971c0-0.276-0.224-0.5-0.5-0.5s-0.5,0.224-0.5,0.5
		v2.971C3.043,16.13,3.266,16.354,3.543,16.354z M4.043,26.13v-1.364c0-0.276-0.224-0.5-0.5-0.5s-0.5,0.224-0.5,0.5v1.364
		c-0.001,0.604,0.113,1.195,0.34,1.754c0.078,0.194,0.266,0.312,0.463,0.312c0.063,0,0.126-0.012,0.188-0.037
		c0.256-0.104,0.38-0.395,0.276-0.65C4.131,27.071,4.042,26.607,4.043,26.13z M3.543,22.296c0.276,0,0.5-0.226,0.5-0.5v-2.973
		c0-0.275-0.224-0.5-0.5-0.5s-0.5,0.225-0.5,0.5v2.973C3.043,22.071,3.266,22.296,3.543,22.296z M29.209,8.337v0.151
		c0,0.276,0.225,0.5,0.5,0.5s0.5-0.224,0.5-0.5V8.337c0-1.059-0.363-2.096-1.021-2.922c-0.172-0.216-0.485-0.251-0.703-0.079
		c-0.215,0.172-0.25,0.487-0.078,0.703C28.93,6.697,29.209,7.492,29.209,8.337z M3.543,10.413c0.276,0,0.5-0.224,0.5-0.5V8.336
		c0-0.414,0.067-0.82,0.201-1.206c0.091-0.261-0.047-0.546-0.308-0.636C3.673,6.402,3.389,6.542,3.299,6.802
		C3.128,7.294,3.042,7.811,3.042,8.336v1.576C3.043,10.189,3.266,10.413,3.543,10.413z M23.339,4.65h2.183
		c0.23,0,0.465,0.021,0.689,0.064c0.031,0.006,0.062,0.009,0.096,0.009c0.233,0,0.443-0.167,0.488-0.407
		c0.053-0.271-0.127-0.533-0.396-0.584c-0.289-0.055-0.584-0.082-0.877-0.082h-2.183c-0.274,0-0.5,0.224-0.5,0.5
		S23.064,4.65,23.339,4.65z M17.399,4.65h2.971c0.276,0,0.5-0.224,0.5-0.5s-0.224-0.5-0.5-0.5h-2.971c-0.276,0-0.5,0.224-0.5,0.5
		S17.123,4.65,17.399,4.65z M11.458,4.65h2.971c0.276,0,0.5-0.224,0.5-0.5s-0.224-0.5-0.5-0.5h-2.971c-0.276,0-0.5,0.224-0.5,0.5
		S11.181,4.65,11.458,4.65z M5.871,5.152C6.432,4.824,7.074,4.651,7.729,4.65h0.758c0.276,0,0.5-0.224,0.5-0.5s-0.224-0.5-0.5-0.5
		H7.728c-0.832,0-1.648,0.221-2.362,0.639c-0.238,0.139-0.318,0.446-0.18,0.684c0.093,0.159,0.261,0.248,0.433,0.248
		C5.704,5.22,5.791,5.198,5.871,5.152z M8.698,29.816H7.729c-0.599,0-1.169-0.14-1.695-0.412c-0.246-0.127-0.548-0.032-0.675,0.213
		s-0.031,0.548,0.214,0.675c0.661,0.342,1.406,0.523,2.156,0.523h0.969c0.276,0,0.5-0.225,0.5-0.5S8.974,29.816,8.698,29.816z
		 M29.709,25.268c-0.275,0-0.5,0.224-0.5,0.5v0.362c0,0.777-0.239,1.521-0.689,2.148c-0.162,0.225-0.111,0.537,0.111,0.698
		c0.089,0.062,0.189,0.094,0.292,0.094c0.155,0,0.31-0.071,0.406-0.208c0.575-0.799,0.88-1.745,0.88-2.732v-0.362
		C30.209,25.49,29.984,25.268,29.709,25.268z M26.395,29.712c-0.285,0.069-0.574,0.062-0.873,0.104H23.55
		c-0.274,0-0.5,0.224-0.5,0.5s0.226,0.5,0.5,0.5h1.972c0.002,0,0.004,0,0.006,0c0.371,0,0.742-0.044,1.104-0.132
		c0.27-0.065,0.434-0.335,0.367-0.604C26.932,29.812,26.66,29.646,26.395,29.712z M20.581,29.816H17.61c-0.276,0-0.5,0.224-0.5,0.5
		s0.224,0.5,0.5,0.5h2.971c0.276,0,0.5-0.224,0.5-0.5S20.857,29.816,20.581,29.816z M14.639,29.816h-2.971
		c-0.276,0-0.5,0.224-0.5,0.5s0.224,0.5,0.5,0.5h2.971c0.276,0,0.5-0.224,0.5-0.5S14.916,29.816,14.639,29.816z M29.709,11.007
		c-0.275,0-0.5,0.224-0.5,0.5v1.5c0,0.276,0.225,0.5,0.5,0.5s0.5-0.224,0.5-0.5v-1.5C30.209,11.231,29.984,11.007,29.709,11.007z
		 M34.462,17.675c0.013,0.967,0.022,1.801-0.515,2.344c-0.195,0.197-0.447,0.324-0.75,0.396c0.021,0.082,0.053,0.166,0.053,0.256
		v7.188c0,3.309-2.689,6-6,6H6c-3.309,0-6-2.691-6-6V6.608c0-3.309,2.691-6,6-6h21.25c3.311,0,6,2.691,6,6v7.313
		c0,0.049-0.021,0.09-0.027,0.137c0.291,0.073,0.534,0.198,0.727,0.391c0.537,0.543,0.525,1.377,0.515,2.343l-0.004,0.442
		L34.462,17.675z M31.251,20.671c0-0.065,0.024-0.125,0.037-0.188h-1.412c-1.792,0-3.25-1.458-3.25-3.25s1.458-3.25,3.25-3.25h1.39
		c-0.004-0.022-0.015-0.041-0.015-0.063V6.607c0-2.206-1.795-4-4-4H6.001c-2.206,0-4,1.794-4,4v21.25c0,2.206,1.794,4,4,4h21.25
		c2.205,0,4-1.794,4-4V20.671z M33.459,17.233l0.004-0.455c0.01-0.71,0.02-1.381-0.227-1.627c-0.109-0.111-0.314-0.168-0.61-0.168
		h-2.75c-1.241,0-2.25,1.009-2.25,2.25s1.009,2.25,2.25,2.25h2.75c0.296,0,0.501-0.057,0.61-0.168
		c0.244-0.246,0.233-0.917,0.227-1.627L33.459,17.233z M30.126,15.733c-0.829,0-1.5,0.671-1.5,1.5s0.671,1.5,1.5,1.5
		c0.828,0,1.5-0.671,1.5-1.5S30.954,15.733,30.126,15.733z M23.085,26.908c-0.095,0.126-0.243,0.201-0.399,0.201H10.282
		c-0.158,0-0.307-0.074-0.401-0.201c-0.094-0.126-0.123-0.29-0.078-0.44l1.973-6.655c-1.406-1.312-2.206-3.126-2.206-5.024
		c0-3.813,3.102-6.914,6.914-6.914s6.915,3.102,6.915,6.914c0,1.898-0.801,3.71-2.205,5.024l1.973,6.655
		C23.209,26.618,23.178,26.782,23.085,26.908z M22.014,26.109l-1.871-6.317c-0.059-0.188,0.004-0.395,0.153-0.521
		c1.334-1.137,2.101-2.77,2.101-4.482c0-3.261-2.652-5.914-5.915-5.914c-3.261,0-5.914,2.653-5.914,5.914
		c0,1.712,0.766,3.345,2.1,4.482c0.15,0.128,0.211,0.333,0.155,0.521l-1.873,6.317H22.014z M19.671,16.144
		c0.146,0.25,0.222,0.529,0.222,0.839c0,0.37-0.111,0.709-0.334,1.021c-0.224,0.312-0.537,0.547-0.944,0.711
		c-0.148,0.061-0.322,0.107-0.521,0.146v1.244h-1.178v-1.146c-0.029,0-0.058,0.002-0.087,0.002h-0.67v1.145H14.98V18.96h-1.797
		v-0.963h0.274c0.183,0,0.306-0.017,0.371-0.048c0.065-0.03,0.11-0.075,0.138-0.135c0.026-0.06,0.04-0.188,0.04-0.392v-3.88
		c0-0.206-0.014-0.337-0.04-0.394c-0.027-0.055-0.072-0.101-0.138-0.134c-0.065-0.034-0.188-0.05-0.371-0.05h-0.274v-0.963h1.797
		v-1.144h1.179v1.144h0.757v-1.144h1.178v1.227c0.173,0.033,0.333,0.076,0.467,0.13c0.346,0.142,0.61,0.344,0.798,0.608
		c0.186,0.265,0.276,0.554,0.276,0.87c0,0.23-0.05,0.448-0.146,0.655c-0.1,0.205-0.24,0.388-0.426,0.545
		c-0.186,0.158-0.431,0.289-0.732,0.393c0.326,0.083,0.575,0.173,0.747,0.274C19.328,15.696,19.525,15.893,19.671,16.144z
		 M15.726,14.819h0.764c0.399,0,0.693-0.033,0.886-0.101c0.19-0.066,0.335-0.167,0.431-0.301c0.096-0.135,0.145-0.291,0.145-0.466
		c0-0.184-0.045-0.34-0.138-0.47c-0.091-0.129-0.224-0.222-0.396-0.275c-0.172-0.055-0.481-0.083-0.927-0.083h-0.764L15.726,14.819
		L15.726,14.819z M18.086,16.8c0-0.208-0.048-0.381-0.144-0.524s-0.241-0.251-0.434-0.324c-0.192-0.074-0.485-0.109-0.882-0.109
		h-0.9v1.506c0.004,0.213,0.012,0.337,0.025,0.374c0.016,0.046,0.044,0.079,0.082,0.098c0.037,0.019,0.143,0.027,0.311,0.027h0.509
		c0.295,0,0.539-0.027,0.733-0.082c0.194-0.056,0.359-0.169,0.495-0.343C18.017,17.249,18.086,17.042,18.086,16.8z"/>
</g>
</svg>